# xmcd CD database file
#
# Track frame offsets:
#	187
#	19200
#	40530
#	61387
#	80702
#	102715
#	114287
#	135167
#	156472
#	176025
#	196425
#
# Disc length: 2902 seconds
#
# Revision: 0
# Processed by: cddbd v1.5.2PL0 Copyright (c) Steve Scherf et al.
# Submitted via: CDex 1.51
#
DISCID=920b540b
DTITLE=Orquesta del Sol - Companeros
DYEAR=1994
DGENRE=Salsa
TTITLE0=Companeros
TTITLE1=Back Stabbers
TTITLE2=Yappari Don Quixote
TTITLE3=Chikatetsu ni Hana Saku Yoru
TTITLE4=Usubeni no Sakamichi
TTITLE5=Bata-Rumba Tokyo
TTITLE6=Sayonara Minna Maboroshi
TTITLE7=Hi! Society
TTITLE8=Abunai Me de Tsuredashite
TTITLE9=Umi no Bara
TTITLE10=Traicionera
EXTD=YEAR: 1994
EXTT0=
EXTT1=
EXTT2=
EXTT3=
EXTT4=
EXTT5=
EXTT6=
EXTT7=
EXTT8=
EXTT9=
EXTT10=
PLAYORDER=
